<svg baseProfile="tiny" xmlns="http://www.w3.org/2000/svg" width="162" height="162"><path shape-rendering="optimizeSpeed" fill="#fff" d="M0 0h162v162h-162z"/><path shape-rendering="optimizeSpeed" d="M0 0h2v2h-2zm2 0h2v2h-2zm2 0h2v2h-2zm2 0h2v2h-2zm2 0h2v2h-2zm2 0h2v2h-2zm2 0h2v2h-2zm10 0h2v2h-2zm2 0h2v2h-2zm2 0h2v2h-2zm4 0h2v2h-2zm4 0h2v2h-2zm2 0h2v2h-2zm4 0h2v2h-2zm2 0h2v2h-2zm6 0h2v2h-2zm4 0h2v2h-2zm2 0h2v2h-2zm6 0h2v2h-2zm4 0h2v2h-2zm2 0h2v2h-2zm2 0h2v2h-2zm2 0h2v2h-2zm2 0h2v2h-2zm4 0h2v2h-2zm4 0h2v2h-2zm4 0h2v2h-2zm4 0h2v2h-2zm4 0h2v2h-2zm4 0h2v2h-2zm6 0h2v2h-2zm2 0h2v2h-2zm4 0h2v2h-2zm4 0h2v2h-2zm4 0h2v2h-2zm4 0h2v2h-2zm4 0h2v2h-2zm4 0h2v2h-2zm4 0h2v2h-2zm4 0h2v2h-2zm12 0h2v2h-2zm2 0h2v2h-2zm2 0h2v2h-2zm2 0h2v2h-2zm2 0h2v2h-2zm2 0h2v2h-2zm2 0h2v2h-2zm-160 2h2v2h-2zm12 0h2v2h-2zm6 0h2v2h-2zm2 0h2v2h-2zm2 0h2v2h-2zm6 0h2v2h-2zm4 0h2v2h-2zm2 0h2v2h-2zm4 0h2v2h-2zm4 0h2v2h-2zm4 0h2v2h-2zm6 0h2v2h-2zm2 0h2v2h-2zm2 0h2v2h-2zm2 0h2v2h-2zm2 0h2v2h-2zm2 0h2v2h-2zm6 0h2v2h-2zm4 0h2v2h-2zm2 0h2v2h-2zm2 0h2v2h-2zm2 0h2v2h-2zm4 0h2v2h-2zm2 0h2v2h-2zm4 0h2v2h-2zm2 0h2v2h-2zm2 0h2v2h-2zm4 0h2v2h-2zm2 0h2v2h-2zm6 0h2v2h-2zm6 0h2v2h-2zm8 0h2v2h-2zm8 0h2v2h-2zm2 0h2v2h-2zm6 0h2v2h-2zm4 0h2v2h-2zm2 0h2v2h-2zm2 0h2v2h-2zm2 0h2v2h-2zm4 0h2v2h-2zm12 0h2v2h-2zm-160 2h2v2h-2zm4 0h2v2h-2zm2 0h2v2h-2zm2 0h2v2h-2zm4 0h2v2h-2zm4 0h2v2h-2zm2 0h2v2h-2zm4 0h2v2h-2zm4 0h2v2h-2zm2 0h2v2h-2zm4 0h2v2h-2zm4 0h2v2h-2zm4 0h2v2h-2zm4 0h2v2h-2zm4 0h2v2h-2zm6 0h2v2h-2zm6 0h2v2h-2zm4 0h2v2h-2zm2 0h2v2h-2zm4 0h2v2h-2zm6 0h2v2h-2zm6 0h2v2h-2zm6 0h2v2h-2zm2 0h2v2h-2zm10 0h2v2h-2zm2 0h2v2h-2zm2 0h2v2h-2zm2 0h2v2h-2zm2 0h2v2h-2zm2 0h2v2h-2zm2 0h2v2h-2zm4 0h2v2h-2zm2 0h2v2h-2zm2 0h2v2h-2zm4 0h2v2h-2zm2 0h2v2h-2zm4 0h2v2h-2zm2 0h2v2h-2zm2 0h2v2h-2zm2 0h2v2h-2zm4 0h2v2h-2zm4 0h2v2h-2zm4 0h2v2h-2zm4 0h2v2h-2zm2 0h2v2h-2zm2 0h2v2h-2zm4 0h2v2h-2zm-160 2h2v2h-2zm4 0h2v2h-2zm2 0h2v2h-2zm2 0h2v2h-2zm4 0h2v2h-2zm10 0h2v2h-2zm2 0h2v2h-2zm2 0h2v2h-2zm2 0h2v2h-2zm4 0h2v2h-2zm2 0h2v2h-2zm4 0h2v2h-2zm2 0h2v2h-2zm2 0h2v2h-2zm8 0h2v2h-2zm4 0h2v2h-2zm2 0h2v2h-2zm2 0h2v2h-2zm6 0h2v2h-2zm2 0h2v2h-2zm12 0h2v2h-2zm6 0h2v2h-2zm4 0h2v2h-2zm2 0h2v2h-2zm4 0h2v2h-2zm4 0h2v2h-2zm8 0h2v2h-2zm2 0h2v2h-2zm2 0h2v2h-2zm2 0h2v2h-2zm2 0h2v2h-2zm4 0h2v2h-2zm4 0h2v2h-2zm4 0h2v2h-2zm4 0h2v2h-2zm2 0h2v2h-2zm2 0h2v2h-2zm4 0h2v2h-2zm2 0h2v2h-2zm4 0h2v2h-2zm4 0h2v2h-2zm4 0h2v2h-2zm2 0h2v2h-2zm2 0h2v2h-2zm4 0h2v2h-2zm-160 2h2v2h-2zm4 0h2v2h-2zm2 0h2v2h-2zm2 0h2v2h-2zm4 0h2v2h-2zm8 0h2v2h-2zm2 0h2v2h-2zm4 0h2v2h-2zm4 0h2v2h-2zm4 0h2v2h-2zm2 0h2v2h-2zm2 0h2v2h-2zm2 0h2v2h-2zm2 0h2v2h-2zm2 0h2v2h-2zm4 0h2v2h-2zm2 0h2v2h-2zm2 0h2v2h-2zm2 0h2v2h-2zm2 0h2v2h-2zm2 0h2v2h-2zm2 0h2v2h-2zm8 0h2v2h-2zm4 0h2v2h-2zm4 0h2v2h-2zm4 0h2v2h-2zm2 0h2v2h-2zm2 0h2v2h-2zm8 0h2v2h-2zm4 0h2v2h-2zm2 0h2v2h-2zm2 0h2v2h-2zm2 0h2v2h-2zm2 0h2v2h-2zm4 0h2v2h-2zm8 0h2v2h-2zm8 0h2v2h-2zm2 0h2v2h-2zm2 0h2v2h-2zm4 0h2v2h-2zm4 0h2v2h-2zm2 0h2v2h-2zm10 0h2v2h-2zm4 0h2v2h-2zm2 0h2v2h-2zm2 0h2v2h-2zm4 0h2v2h-2zm-160 2h2v2h-2zm12 0h2v2h-2zm6 0h2v2h-2zm10 0h2v2h-2zm4 0h2v2h-2zm2 0h2v2h-2zm6 0h2v2h-2zm2 0h2v2h-2zm6 0h2v2h-2zm8 0h2v2h-2zm4 0h2v2h-2zm4 0h2v2h-2zm2 0h2v2h-2zm2 0h2v2h-2zm2 0h2v2h-2zm8 0h2v2h-2zm6 0h2v2h-2zm4 0h2v2h-2zm2 0h2v2h-2zm2 0h2v2h-2zm2 0h2v2h-2zm2 0h2v2h-2zm8 0h2v2h-2zm20 0h2v2h-2zm10 0h2v2h-2zm8 0h2v2h-2zm6 0h2v2h-2zm12 0h2v2h-2zm-160 2h2v2h-2zm2 0h2v2h-2zm2 0h2v2h-2zm2 0h2v2h-2zm2 0h2v2h-2zm2 0h2v2h-2zm2 0h2v2h-2zm4 0h2v2h-2zm4 0h2v2h-2zm4 0h2v2h-2zm4 0h2v2h-2zm4 0h2v2h-2zm4 0h2v2h-2zm4 0h2v2h-2zm4 0h2v2h-2zm4 0h2v2h-2zm4 0h2v2h-2zm4 0h2v2h-2zm4 0h2v2h-2zm4 0h2v2h-2zm4 0h2v2h-2zm4 0h2v2h-2zm4 0h2v2h-2zm4 0h2v2h-2zm4 0h2v2h-2zm4 0h2v2h-2zm4 0h2v2h-2zm4 0h2v2h-2zm4 0h2v2h-2zm4 0h2v2h-2zm4 0h2v2h-2zm4 0h2v2h-2zm4 0h2v2h-2zm4 0h2v2h-2zm4 0h2v2h-2zm4 0h2v2h-2zm4 0h2v2h-2zm4 0h2v2h-2zm4 0h2v2h-2zm4 0h2v2h-2zm4 0h2v2h-2zm2 0h2v2h-2zm2 0h2v2h-2zm2 0h2v2h-2zm2 0h2v2h-2zm2 0h2v2h-2zm2 0h2v2h-2zm-144 2h2v2h-2zm4 0h2v2h-2zm6 0h2v2h-2zm2 0h2v2h-2zm4 0h2v2h-2zm2 0h2v2h-2zm8 0h2v2h-2zm6 0h2v2h-2zm8 0h2v2h-2zm2 0h2v2h-2zm4 0h2v2h-2zm2 0h2v2h-2zm2 0h2v2h-2zm4 0h2v2h-2zm2 0h2v2h-2zm4 0h2v2h-2zm8 0h2v2h-2zm2 0h2v2h-2zm2 0h2v2h-2zm6 0h2v2h-2zm2 0h2v2h-2zm8 0h2v2h-2zm2 0h2v2h-2zm8 0h2v2h-2zm24 0h2v2h-2zm2 0h2v2h-2zm2 0h2v2h-2zm-142 2h2v2h-2zm2 0h2v2h-2zm2 0h2v2h-2zm4 0h2v2h-2zm2 0h2v2h-2zm2 0h2v2h-2zm2 0h2v2h-2zm2 0h2v2h-2zm6 0h2v2h-2zm4 0h2v2h-2zm6 0h2v2h-2zm4 0h2v2h-2zm2 0h2v2h-2zm6 0h2v2h-2zm2 0h2v2h-2zm2 0h2v2h-2zm2 0h2v2h-2zm2 0h2v2h-2zm2 0h2v2h-2zm2 0h2v2h-2zm4 0h2v2h-2zm4 0h2v2h-2zm4 0h2v2h-2zm4 0h2v2h-2zm2 0h2v2h-2zm2 0h2v2h-2zm2 0h2v2h-2zm2 0h2v2h-2zm4 0h2v2h-2zm4 0h2v2h-2zm2 0h2v2h-2zm6 0h2v2h-2zm2 0h2v2h-2zm2 0h2v2h-2zm2 0h2v2h-2zm2 0h2v2h-2zm4 0h2v2h-2zm4 0h2v2h-2zm4 0h2v2h-2zm6 0h2v2h-2zm6 0h2v2h-2zm8 0h2v2h-2zm4 0h2v2h-2zm2 0h2v2h-2zm2 0h2v2h-2zm2 0h2v2h-2zm2 0h2v2h-2zm8 0h2v2h-2zm-152 2h2v2h-2zm4 0h2v2h-2zm2 0h2v2h-2zm4 0h2v2h-2zm2 0h2v2h-2zm2 0h2v2h-2zm4 0h2v2h-2zm4 0h2v2h-2zm2 0h2v2h-2zm2 0h2v2h-2zm2 0h2v2h-2zm4 0h2v2h-2zm2 0h2v2h-2zm12 0h2v2h-2zm2 0h2v2h-2zm2 0h2v2h-2zm4 0h2v2h-2zm6 0h2v2h-2zm6 0h2v2h-2zm4 0h2v2h-2zm4 0h2v2h-2zm4 0h2v2h-2zm4 0h2v2h-2zm4 0h2v2h-2zm4 0h2v2h-2zm2 0h2v2h-2zm6 0h2v2h-2zm4 0h2v2h-2zm4 0h2v2h-2zm4 0h2v2h-2zm4 0h2v2h-2zm2 0h2v2h-2zm2 0h2v2h-2zm4 0h2v2h-2zm4 0h2v2h-2zm2 0h2v2h-2zm2 0h2v2h-2zm4 0h2v2h-2zm4 0h2v2h-2zm4 0h2v2h-2zm6 0h2v2h-2zm4 0h2v2h-2zm2 0h2v2h-2zm2 0h2v2h-2zm-158 2h2v2h-2zm10 0h2v2h-2zm2 0h2v2h-2zm2 0h2v2h-2zm2 0h2v2h-2zm4 0h2v2h-2zm2 0h2v2h-2zm2 0h2v2h-2zm4 0h2v2h-2zm10 0h2v2h-2zm2 0h2v2h-2zm2 0h2v2h-2zm2 0h2v2h-2zm2 0h2v2h-2zm4 0h2v2h-2zm2 0h2v2h-2zm8 0h2v2h-2zm2 0h2v2h-2zm6 0h2v2h-2zm10 0h2v2h-2zm8 0h2v2h-2zm8 0h2v2h-2zm4 0h2v2h-2zm4 0h2v2h-2zm2 0h2v2h-2zm10 0h2v2h-2zm2 0h2v2h-2zm2 0h2v2h-2zm2 0h2v2h-2zm2 0h2v2h-2zm4 0h2v2h-2zm2 0h2v2h-2zm2 0h2v2h-2zm4 0h2v2h-2zm2 0h2v2h-2zm2 0h2v2h-2zm8 0h2v2h-2zm12 0h2v2h-2zm-154 2h2v2h-2zm2 0h2v2h-2zm2 0h2v2h-2zm4 0h2v2h-2zm8 0h2v2h-2zm2 0h2v2h-2zm6 0h2v2h-2zm4 0h2v2h-2zm4 0h2v2h-2zm6 0h2v2h-2zm2 0h2v2h-2zm4 0h2v2h-2zm8 0h2v2h-2zm4 0h2v2h-2zm2 0h2v2h-2zm4 0h2v2h-2zm6 0h2v2h-2zm4 0h2v2h-2zm2 0h2v2h-2zm2 0h2v2h-2zm4 0h2v2h-2zm2 0h2v2h-2zm4 0h2v2h-2zm2 0h2v2h-2zm4 0h2v2h-2zm4 0h2v2h-2zm6 0h2v2h-2zm2 0h2v2h-2zm2 0h2v2h-2zm10 0h2v2h-2zm8 0h2v2h-2zm8 0h2v2h-2zm6 0h2v2h-2zm2 0h2v2h-2zm2 0h2v2h-2zm2 0h2v2h-2zm4 0h2v2h-2zm4 0h2v2h-2zm-154 2h2v2h-2zm8 0h2v2h-2zm2 0h2v2h-2zm6 0h2v2h-2zm6 0h2v2h-2zm2 0h2v2h-2zm2 0h2v2h-2zm2 0h2v2h-2zm4 0h2v2h-2zm2 0h2v2h-2zm2 0h2v2h-2zm2 0h2v2h-2zm2 0h2v2h-2zm2 0h2v2h-2zm4 0h2v2h-2zm2 0h2v2h-2zm8 0h2v2h-2zm4 0h2v2h-2zm8 0h2v2h-2zm4 0h2v2h-2zm4 0h2v2h-2zm4 0h2v2h-2zm4 0h2v2h-2zm6 0h2v2h-2zm6 0h2v2h-2zm2 0h2v2h-2zm2 0h2v2h-2zm8 0h2v2h-2zm8 0h2v2h-2zm4 0h2v2h-2zm4 0h2v2h-2zm4 0h2v2h-2zm4 0h2v2h-2zm4 0h2v2h-2zm2 0h2v2h-2zm4 0h2v2h-2zm14 0h2v2h-2zm-160 2h2v2h-2zm4 0h2v2h-2zm2 0h2v2h-2zm12 0h2v2h-2zm2 0h2v2h-2zm2 0h2v2h-2zm4 0h2v2h-2zm2 0h2v2h-2zm10 0h2v2h-2zm4 0h2v2h-2zm2 0h2v2h-2zm4 0h2v2h-2zm2 0h2v2h-2zm2 0h2v2h-2zm2 0h2v2h-2zm4 0h2v2h-2zm4 0h2v2h-2zm6 0h2v2h-2zm6 0h2v2h-2zm4 0h2v2h-2zm8 0h2v2h-2zm6 0h2v2h-2zm6 0h2v2h-2zm2 0h2v2h-2zm2 0h2v2h-2zm4 0h2v2h-2zm4 0h2v2h-2zm4 0h2v2h-2zm2 0h2v2h-2zm2 0h2v2h-2zm4 0h2v2h-2zm4 0h2v2h-2zm4 0h2v2h-2zm4 0h2v2h-2zm4 0h2v2h-2zm4 0h2v2h-2zm4 0h2v2h-2zm6 0h2v2h-2zm2 0h2v2h-2zm4 0h2v2h-2zm2 0h2v2h-2zm-156 2h2v2h-2zm8 0h2v2h-2zm6 0h2v2h-2zm6 0h2v2h-2zm2 0h2v2h-2zm2 0h2v2h-2zm4 0h2v2h-2zm4 0h2v2h-2zm8 0h2v2h-2zm4 0h2v2h-2zm4 0h2v2h-2zm2 0h2v2h-2zm8 0h2v2h-2zm6 0h2v2h-2zm4 0h2v2h-2zm6 0h2v2h-2zm4 0h2v2h-2zm2 0h2v2h-2zm4 0h2v2h-2zm4 0h2v2h-2zm4 0h2v2h-2zm2 0h2v2h-2zm8 0h2v2h-2zm2 0h2v2h-2zm4 0h2v2h-2zm2 0h2v2h-2zm2 0h2v2h-2zm4 0h2v2h-2zm2 0h2v2h-2zm2 0h2v2h-2zm4 0h2v2h-2zm2 0h2v2h-2zm6 0h2v2h-2zm2 0h2v2h-2zm2 0h2v2h-2zm4 0h2v2h-2zm4 0h2v2h-2zm8 0h2v2h-2zm4 0h2v2h-2zm-156 2h2v2h-2zm4 0h2v2h-2zm6 0h2v2h-2zm6 0h2v2h-2zm2 0h2v2h-2zm4 0h2v2h-2zm2 0h2v2h-2zm6 0h2v2h-2zm8 0h2v2h-2zm4 0h2v2h-2zm2 0h2v2h-2zm2 0h2v2h-2zm6 0h2v2h-2zm2 0h2v2h-2zm4 0h2v2h-2zm2 0h2v2h-2zm2 0h2v2h-2zm4 0h2v2h-2zm2 0h2v2h-2zm6 0h2v2h-2zm2 0h2v2h-2zm2 0h2v2h-2zm6 0h2v2h-2zm2 0h2v2h-2zm8 0h2v2h-2zm2 0h2v2h-2zm4 0h2v2h-2zm2 0h2v2h-2zm8 0h2v2h-2zm8 0h2v2h-2zm8 0h2v2h-2zm2 0h2v2h-2zm10 0h2v2h-2zm4 0h2v2h-2zm2 0h2v2h-2zm2 0h2v2h-2zm4 0h2v2h-2zm4 0h2v2h-2zm-158 2h2v2h-2zm8 0h2v2h-2zm4 0h2v2h-2zm6 0h2v2h-2zm6 0h2v2h-2zm2 0h2v2h-2zm6 0h2v2h-2zm4 0h2v2h-2zm2 0h2v2h-2zm2 0h2v2h-2zm4 0h2v2h-2zm4 0h2v2h-2zm4 0h2v2h-2zm8 0h2v2h-2zm4 0h2v2h-2zm4 0h2v2h-2zm4 0h2v2h-2zm8 0h2v2h-2zm4 0h2v2h-2zm2 0h2v2h-2zm2 0h2v2h-2zm4 0h2v2h-2zm4 0h2v2h-2zm4 0h2v2h-2zm2 0h2v2h-2zm4 0h2v2h-2zm6 0h2v2h-2zm4 0h2v2h-2zm4 0h2v2h-2zm4 0h2v2h-2zm4 0h2v2h-2zm4 0h2v2h-2zm4 0h2v2h-2zm2 0h2v2h-2zm4 0h2v2h-2zm2 0h2v2h-2zm4 0h2v2h-2zm4 0h2v2h-2zm8 0h2v2h-2zm-160 2h2v2h-2zm6 0h2v2h-2zm8 0h2v2h-2zm6 0h2v2h-2zm4 0h2v2h-2zm8 0h2v2h-2zm6 0h2v2h-2zm8 0h2v2h-2zm4 0h2v2h-2zm2 0h2v2h-2zm2 0h2v2h-2zm4 0h2v2h-2zm4 0h2v2h-2zm4 0h2v2h-2zm6 0h2v2h-2zm2 0h2v2h-2zm4 0h2v2h-2zm4 0h2v2h-2zm4 0h2v2h-2zm4 0h2v2h-2zm4 0h2v2h-2zm2 0h2v2h-2zm6 0h2v2h-2zm4 0h2v2h-2zm2 0h2v2h-2zm2 0h2v2h-2zm4 0h2v2h-2zm4 0h2v2h-2zm2 0h2v2h-2zm2 0h2v2h-2zm4 0h2v2h-2zm4 0h2v2h-2zm4 0h2v2h-2zm2 0h2v2h-2zm2 0h2v2h-2zm4 0h2v2h-2zm2 0h2v2h-2zm2 0h2v2h-2zm6 0h2v2h-2zm2 0h2v2h-2zm4 0h2v2h-2zm2 0h2v2h-2zm-160 2h2v2h-2zm2 0h2v2h-2zm6 0h2v2h-2zm2 0h2v2h-2zm2 0h2v2h-2zm2 0h2v2h-2zm14 0h2v2h-2zm4 0h2v2h-2zm4 0h2v2h-2zm4 0h2v2h-2zm4 0h2v2h-2zm2 0h2v2h-2zm2 0h2v2h-2zm4 0h2v2h-2zm4 0h2v2h-2zm8 0h2v2h-2zm6 0h2v2h-2zm2 0h2v2h-2zm6 0h2v2h-2zm10 0h2v2h-2zm8 0h2v2h-2zm4 0h2v2h-2zm6 0h2v2h-2zm2 0h2v2h-2zm6 0h2v2h-2zm2 0h2v2h-2zm2 0h2v2h-2zm2 0h2v2h-2zm2 0h2v2h-2zm6 0h2v2h-2zm2 0h2v2h-2zm2 0h2v2h-2zm2 0h2v2h-2zm4 0h2v2h-2zm2 0h2v2h-2zm8 0h2v2h-2zm8 0h2v2h-2zm4 0h2v2h-2zm-160 2h2v2h-2zm2 0h2v2h-2zm14 0h2v2h-2zm4 0h2v2h-2zm8 0h2v2h-2zm6 0h2v2h-2zm4 0h2v2h-2zm4 0h2v2h-2zm4 0h2v2h-2zm2 0h2v2h-2zm2 0h2v2h-2zm4 0h2v2h-2zm4 0h2v2h-2zm4 0h2v2h-2zm2 0h2v2h-2zm4 0h2v2h-2zm4 0h2v2h-2zm2 0h2v2h-2zm4 0h2v2h-2zm4 0h2v2h-2zm4 0h2v2h-2zm2 0h2v2h-2zm2 0h2v2h-2zm8 0h2v2h-2zm8 0h2v2h-2zm4 0h2v2h-2zm2 0h2v2h-2zm2 0h2v2h-2zm10 0h2v2h-2zm6 0h2v2h-2zm6 0h2v2h-2zm10 0h2v2h-2zm2 0h2v2h-2zm6 0h2v2h-2zm4 0h2v2h-2zm-154 2h2v2h-2zm2 0h2v2h-2zm6 0h2v2h-2zm2 0h2v2h-2zm2 0h2v2h-2zm2 0h2v2h-2zm2 0h2v2h-2zm6 0h2v2h-2zm4 0h2v2h-2zm8 0h2v2h-2zm2 0h2v2h-2zm4 0h2v2h-2zm2 0h2v2h-2zm6 0h2v2h-2zm6 0h2v2h-2zm2 0h2v2h-2zm4 0h2v2h-2zm4 0h2v2h-2zm2 0h2v2h-2zm2 0h2v2h-2zm4 0h2v2h-2zm2 0h2v2h-2zm4 0h2v2h-2zm2 0h2v2h-2zm4 0h2v2h-2zm4 0h2v2h-2zm2 0h2v2h-2zm6 0h2v2h-2zm2 0h2v2h-2zm2 0h2v2h-2zm2 0h2v2h-2zm6 0h2v2h-2zm4 0h2v2h-2zm4 0h2v2h-2zm8 0h2v2h-2zm4 0h2v2h-2zm4 0h2v2h-2zm6 0h2v2h-2zm2 0h2v2h-2zm4 0h2v2h-2zm4 0h2v2h-2zm8 0h2v2h-2zm-160 2h2v2h-2zm4 0h2v2h-2zm2 0h2v2h-2zm8 0h2v2h-2zm4 0h2v2h-2zm4 0h2v2h-2zm2 0h2v2h-2zm2 0h2v2h-2zm4 0h2v2h-2zm4 0h2v2h-2zm4 0h2v2h-2zm8 0h2v2h-2zm4 0h2v2h-2zm2 0h2v2h-2zm2 0h2v2h-2zm4 0h2v2h-2zm4 0h2v2h-2zm4 0h2v2h-2zm4 0h2v2h-2zm8 0h2v2h-2zm2 0h2v2h-2zm2 0h2v2h-2zm4 0h2v2h-2zm4 0h2v2h-2zm6 0h2v2h-2zm6 0h2v2h-2zm4 0h2v2h-2zm2 0h2v2h-2zm2 0h2v2h-2zm4 0h2v2h-2zm4 0h2v2h-2zm2 0h2v2h-2zm2 0h2v2h-2zm4 0h2v2h-2zm4 0h2v2h-2zm4 0h2v2h-2zm4 0h2v2h-2zm4 0h2v2h-2zm4 0h2v2h-2zm4 0h2v2h-2zm4 0h2v2h-2zm4 0h2v2h-2zm2 0h2v2h-2zm-148 2h2v2h-2zm2 0h2v2h-2zm2 0h2v2h-2zm4 0h2v2h-2zm12 0h2v2h-2zm8 0h2v2h-2zm4 0h2v2h-2zm2 0h2v2h-2zm2 0h2v2h-2zm4 0h2v2h-2zm4 0h2v2h-2zm2 0h2v2h-2zm2 0h2v2h-2zm4 0h2v2h-2zm8 0h2v2h-2zm2 0h2v2h-2zm4 0h2v2h-2zm4 0h2v2h-2zm2 0h2v2h-2zm4 0h2v2h-2zm6 0h2v2h-2zm2 0h2v2h-2zm4 0h2v2h-2zm4 0h2v2h-2zm4 0h2v2h-2zm4 0h2v2h-2zm2 0h2v2h-2zm4 0h2v2h-2zm2 0h2v2h-2zm2 0h2v2h-2zm2 0h2v2h-2zm4 0h2v2h-2zm2 0h2v2h-2zm6 0h2v2h-2zm2 0h2v2h-2zm2 0h2v2h-2zm4 0h2v2h-2zm4 0h2v2h-2zm8 0h2v2h-2zm4 0h2v2h-2zm-154 2h2v2h-2zm2 0h2v2h-2zm2 0h2v2h-2zm4 0h2v2h-2zm6 0h2v2h-2zm2 0h2v2h-2zm2 0h2v2h-2zm2 0h2v2h-2zm2 0h2v2h-2zm6 0h2v2h-2zm4 0h2v2h-2zm4 0h2v2h-2zm4 0h2v2h-2zm4 0h2v2h-2zm4 0h2v2h-2zm4 0h2v2h-2zm4 0h2v2h-2zm2 0h2v2h-2zm4 0h2v2h-2zm2 0h2v2h-2zm2 0h2v2h-2zm4 0h2v2h-2zm2 0h2v2h-2zm2 0h2v2h-2zm4 0h2v2h-2zm2 0h2v2h-2zm2 0h2v2h-2zm2 0h2v2h-2zm4 0h2v2h-2zm4 0h2v2h-2zm4 0h2v2h-2zm4 0h2v2h-2zm8 0h2v2h-2zm2 0h2v2h-2zm6 0h2v2h-2zm8 0h2v2h-2zm8 0h2v2h-2zm4 0h2v2h-2zm4 0h2v2h-2zm2 0h2v2h-2zm2 0h2v2h-2zm10 0h2v2h-2zm-160 2h2v2h-2zm2 0h2v2h-2zm2 0h2v2h-2zm4 0h2v2h-2zm2 0h2v2h-2zm2 0h2v2h-2zm2 0h2v2h-2zm2 0h2v2h-2zm6 0h2v2h-2zm6 0h2v2h-2zm4 0h2v2h-2zm4 0h2v2h-2zm2 0h2v2h-2zm2 0h2v2h-2zm4 0h2v2h-2zm4 0h2v2h-2zm2 0h2v2h-2zm2 0h2v2h-2zm2 0h2v2h-2zm2 0h2v2h-2zm4 0h2v2h-2zm4 0h2v2h-2zm4 0h2v2h-2zm4 0h2v2h-2zm2 0h2v2h-2zm2 0h2v2h-2zm2 0h2v2h-2zm2 0h2v2h-2zm2 0h2v2h-2zm2 0h2v2h-2zm4 0h2v2h-2zm4 0h2v2h-2zm4 0h2v2h-2zm2 0h2v2h-2zm2 0h2v2h-2zm2 0h2v2h-2zm2 0h2v2h-2zm4 0h2v2h-2zm4 0h2v2h-2zm4 0h2v2h-2zm4 0h2v2h-2zm4 0h2v2h-2zm4 0h2v2h-2zm4 0h2v2h-2zm4 0h2v2h-2zm4 0h2v2h-2zm2 0h2v2h-2zm2 0h2v2h-2zm2 0h2v2h-2zm2 0h2v2h-2zm2 0h2v2h-2zm2 0h2v2h-2zm2 0h2v2h-2zm4 0h2v2h-2zm-150 2h2v2h-2zm8 0h2v2h-2zm2 0h2v2h-2zm6 0h2v2h-2zm6 0h2v2h-2zm2 0h2v2h-2zm6 0h2v2h-2zm10 0h2v2h-2zm8 0h2v2h-2zm2 0h2v2h-2zm4 0h2v2h-2zm4 0h2v2h-2zm8 0h2v2h-2zm4 0h2v2h-2zm4 0h2v2h-2zm4 0h2v2h-2zm4 0h2v2h-2zm4 0h2v2h-2zm2 0h2v2h-2zm8 0h2v2h-2zm2 0h2v2h-2zm4 0h2v2h-2zm4 0h2v2h-2zm4 0h2v2h-2zm2 0h2v2h-2zm2 0h2v2h-2zm4 0h2v2h-2zm4 0h2v2h-2zm6 0h2v2h-2zm2 0h2v2h-2zm4 0h2v2h-2zm2 0h2v2h-2zm8 0h2v2h-2zm2 0h2v2h-2zm2 0h2v2h-2zm2 0h2v2h-2zm2 0h2v2h-2zm-158 2h2v2h-2zm4 0h2v2h-2zm2 0h2v2h-2zm4 0h2v2h-2zm4 0h2v2h-2zm6 0h2v2h-2zm2 0h2v2h-2zm2 0h2v2h-2zm10 0h2v2h-2zm2 0h2v2h-2zm6 0h2v2h-2zm2 0h2v2h-2zm2 0h2v2h-2zm4 0h2v2h-2zm4 0h2v2h-2zm8 0h2v2h-2zm6 0h2v2h-2zm10 0h2v2h-2zm8 0h2v2h-2zm6 0h2v2h-2zm2 0h2v2h-2zm4 0h2v2h-2zm4 0h2v2h-2zm2 0h2v2h-2zm2 0h2v2h-2zm4 0h2v2h-2zm2 0h2v2h-2zm2 0h2v2h-2zm2 0h2v2h-2zm4 0h2v2h-2zm2 0h2v2h-2zm4 0h2v2h-2zm2 0h2v2h-2zm2 0h2v2h-2zm2 0h2v2h-2zm2 0h2v2h-2zm2 0h2v2h-2zm2 0h2v2h-2zm4 0h2v2h-2zm4 0h2v2h-2zm4 0h2v2h-2zm2 0h2v2h-2zm2 0h2v2h-2zm4 0h2v2h-2zm-160 2h2v2h-2zm4 0h2v2h-2zm2 0h2v2h-2zm2 0h2v2h-2zm8 0h2v2h-2zm10 0h2v2h-2zm2 0h2v2h-2zm4 0h2v2h-2zm2 0h2v2h-2zm6 0h2v2h-2zm2 0h2v2h-2zm4 0h2v2h-2zm2 0h2v2h-2zm8 0h2v2h-2zm4 0h2v2h-2zm6 0h2v2h-2zm4 0h2v2h-2zm2 0h2v2h-2zm4 0h2v2h-2zm2 0h2v2h-2zm2 0h2v2h-2zm4 0h2v2h-2zm6 0h2v2h-2zm6 0h2v2h-2zm8 0h2v2h-2zm2 0h2v2h-2zm8 0h2v2h-2zm4 0h2v2h-2zm2 0h2v2h-2zm2 0h2v2h-2zm4 0h2v2h-2zm4 0h2v2h-2zm12 0h2v2h-2zm2 0h2v2h-2zm8 0h2v2h-2zm2 0h2v2h-2zm4 0h2v2h-2zm-158 2h2v2h-2zm4 0h2v2h-2zm4 0h2v2h-2zm2 0h2v2h-2zm2 0h2v2h-2zm2 0h2v2h-2zm2 0h2v2h-2zm8 0h2v2h-2zm4 0h2v2h-2zm2 0h2v2h-2zm6 0h2v2h-2zm4 0h2v2h-2zm4 0h2v2h-2zm2 0h2v2h-2zm2 0h2v2h-2zm2 0h2v2h-2zm2 0h2v2h-2zm2 0h2v2h-2zm2 0h2v2h-2zm4 0h2v2h-2zm4 0h2v2h-2zm4 0h2v2h-2zm4 0h2v2h-2zm8 0h2v2h-2zm4 0h2v2h-2zm4 0h2v2h-2zm4 0h2v2h-2zm2 0h2v2h-2zm2 0h2v2h-2zm2 0h2v2h-2zm2 0h2v2h-2zm2 0h2v2h-2zm2 0h2v2h-2zm4 0h2v2h-2zm4 0h2v2h-2zm4 0h2v2h-2zm4 0h2v2h-2zm4 0h2v2h-2zm4 0h2v2h-2zm4 0h2v2h-2zm12 0h2v2h-2zm2 0h2v2h-2zm2 0h2v2h-2zm2 0h2v2h-2zm2 0h2v2h-2zm8 0h2v2h-2zm-154 2h2v2h-2zm2 0h2v2h-2zm2 0h2v2h-2zm6 0h2v2h-2zm2 0h2v2h-2zm2 0h2v2h-2zm2 0h2v2h-2zm2 0h2v2h-2zm2 0h2v2h-2zm6 0h2v2h-2zm2 0h2v2h-2zm2 0h2v2h-2zm2 0h2v2h-2zm2 0h2v2h-2zm6 0h2v2h-2zm4 0h2v2h-2zm4 0h2v2h-2zm2 0h2v2h-2zm2 0h2v2h-2zm8 0h2v2h-2zm4 0h2v2h-2zm6 0h2v2h-2zm2 0h2v2h-2zm4 0h2v2h-2zm8 0h2v2h-2zm4 0h2v2h-2zm4 0h2v2h-2zm8 0h2v2h-2zm4 0h2v2h-2zm4 0h2v2h-2zm4 0h2v2h-2zm4 0h2v2h-2zm4 0h2v2h-2zm4 0h2v2h-2zm6 0h2v2h-2zm2 0h2v2h-2zm6 0h2v2h-2zm2 0h2v2h-2zm4 0h2v2h-2zm4 0h2v2h-2zm4 0h2v2h-2zm2 0h2v2h-2zm-150 2h2v2h-2zm2 0h2v2h-2zm2 0h2v2h-2zm6 0h2v2h-2zm4 0h2v2h-2zm2 0h2v2h-2zm8 0h2v2h-2zm6 0h2v2h-2zm4 0h2v2h-2zm4 0h2v2h-2zm8 0h2v2h-2zm8 0h2v2h-2zm8 0h2v2h-2zm4 0h2v2h-2zm12 0h2v2h-2zm8 0h2v2h-2zm2 0h2v2h-2zm2 0h2v2h-2zm4 0h2v2h-2zm2 0h2v2h-2zm2 0h2v2h-2zm4 0h2v2h-2zm2 0h2v2h-2zm2 0h2v2h-2zm4 0h2v2h-2zm2 0h2v2h-2zm2 0h2v2h-2zm4 0h2v2h-2zm2 0h2v2h-2zm2 0h2v2h-2zm4 0h2v2h-2zm2 0h2v2h-2zm2 0h2v2h-2zm8 0h2v2h-2zm2 0h2v2h-2zm6 0h2v2h-2zm4 0h2v2h-2zm-158 2h2v2h-2zm2 0h2v2h-2zm2 0h2v2h-2zm18 0h2v2h-2zm2 0h2v2h-2zm4 0h2v2h-2zm4 0h2v2h-2zm2 0h2v2h-2zm2 0h2v2h-2zm6 0h2v2h-2zm2 0h2v2h-2zm4 0h2v2h-2zm8 0h2v2h-2zm4 0h2v2h-2zm2 0h2v2h-2zm2 0h2v2h-2zm4 0h2v2h-2zm2 0h2v2h-2zm4 0h2v2h-2zm2 0h2v2h-2zm2 0h2v2h-2zm4 0h2v2h-2zm2 0h2v2h-2zm2 0h2v2h-2zm2 0h2v2h-2zm4 0h2v2h-2zm4 0h2v2h-2zm4 0h2v2h-2zm20 0h2v2h-2zm16 0h2v2h-2zm4 0h2v2h-2zm4 0h2v2h-2zm6 0h2v2h-2zm2 0h2v2h-2zm4 0h2v2h-2zm-158 2h2v2h-2zm2 0h2v2h-2zm2 0h2v2h-2zm2 0h2v2h-2zm4 0h2v2h-2zm2 0h2v2h-2zm8 0h2v2h-2zm2 0h2v2h-2zm2 0h2v2h-2zm8 0h2v2h-2zm4 0h2v2h-2zm2 0h2v2h-2zm2 0h2v2h-2zm10 0h2v2h-2zm2 0h2v2h-2zm2 0h2v2h-2zm6 0h2v2h-2zm4 0h2v2h-2zm4 0h2v2h-2zm4 0h2v2h-2zm2 0h2v2h-2zm2 0h2v2h-2zm4 0h2v2h-2zm2 0h2v2h-2zm2 0h2v2h-2zm4 0h2v2h-2zm4 0h2v2h-2zm2 0h2v2h-2zm2 0h2v2h-2zm4 0h2v2h-2zm14 0h2v2h-2zm2 0h2v2h-2zm4 0h2v2h-2zm4 0h2v2h-2zm4 0h2v2h-2zm8 0h2v2h-2zm4 0h2v2h-2zm4 0h2v2h-2zm6 0h2v2h-2zm2 0h2v2h-2zm8 0h2v2h-2zm-156 2h2v2h-2zm2 0h2v2h-2zm10 0h2v2h-2zm2 0h2v2h-2zm6 0h2v2h-2zm4 0h2v2h-2zm2 0h2v2h-2zm2 0h2v2h-2zm6 0h2v2h-2zm2 0h2v2h-2zm6 0h2v2h-2zm4 0h2v2h-2zm12 0h2v2h-2zm4 0h2v2h-2zm4 0h2v2h-2zm4 0h2v2h-2zm4 0h2v2h-2zm4 0h2v2h-2zm6 0h2v2h-2zm2 0h2v2h-2zm4 0h2v2h-2zm4 0h2v2h-2zm2 0h2v2h-2zm2 0h2v2h-2zm4 0h2v2h-2zm6 0h2v2h-2zm2 0h2v2h-2zm4 0h2v2h-2zm2 0h2v2h-2zm2 0h2v2h-2zm4 0h2v2h-2zm4 0h2v2h-2zm2 0h2v2h-2zm2 0h2v2h-2zm2 0h2v2h-2zm2 0h2v2h-2zm4 0h2v2h-2zm4 0h2v2h-2zm4 0h2v2h-2zm4 0h2v2h-2zm4 0h2v2h-2zm2 0h2v2h-2zm-154 2h2v2h-2zm4 0h2v2h-2zm2 0h2v2h-2zm2 0h2v2h-2zm4 0h2v2h-2zm4 0h2v2h-2zm4 0h2v2h-2zm4 0h2v2h-2zm4 0h2v2h-2zm2 0h2v2h-2zm2 0h2v2h-2zm6 0h2v2h-2zm4 0h2v2h-2zm2 0h2v2h-2zm2 0h2v2h-2zm4 0h2v2h-2zm2 0h2v2h-2zm6 0h2v2h-2zm8 0h2v2h-2zm6 0h2v2h-2zm4 0h2v2h-2zm4 0h2v2h-2zm2 0h2v2h-2zm12 0h2v2h-2zm6 0h2v2h-2zm2 0h2v2h-2zm4 0h2v2h-2zm2 0h2v2h-2zm2 0h2v2h-2zm2 0h2v2h-2zm2 0h2v2h-2zm2 0h2v2h-2zm2 0h2v2h-2zm4 0h2v2h-2zm2 0h2v2h-2zm4 0h2v2h-2zm2 0h2v2h-2zm2 0h2v2h-2zm2 0h2v2h-2zm2 0h2v2h-2zm6 0h2v2h-2zm4 0h2v2h-2zm4 0h2v2h-2zm4 0h2v2h-2zm-156 2h2v2h-2zm2 0h2v2h-2zm8 0h2v2h-2zm2 0h2v2h-2zm2 0h2v2h-2zm2 0h2v2h-2zm2 0h2v2h-2zm4 0h2v2h-2zm2 0h2v2h-2zm2 0h2v2h-2zm6 0h2v2h-2zm2 0h2v2h-2zm2 0h2v2h-2zm2 0h2v2h-2zm4 0h2v2h-2zm4 0h2v2h-2zm8 0h2v2h-2zm6 0h2v2h-2zm2 0h2v2h-2zm4 0h2v2h-2zm4 0h2v2h-2zm10 0h2v2h-2zm2 0h2v2h-2zm2 0h2v2h-2zm2 0h2v2h-2zm10 0h2v2h-2zm2 0h2v2h-2zm4 0h2v2h-2zm14 0h2v2h-2zm2 0h2v2h-2zm10 0h2v2h-2zm6 0h2v2h-2zm8 0h2v2h-2zm6 0h2v2h-2zm2 0h2v2h-2zm6 0h2v2h-2zm-158 2h2v2h-2zm6 0h2v2h-2zm4 0h2v2h-2zm2 0h2v2h-2zm8 0h2v2h-2zm2 0h2v2h-2zm6 0h2v2h-2zm2 0h2v2h-2zm4 0h2v2h-2zm2 0h2v2h-2zm14 0h2v2h-2zm4 0h2v2h-2zm4 0h2v2h-2zm2 0h2v2h-2zm2 0h2v2h-2zm2 0h2v2h-2zm2 0h2v2h-2zm2 0h2v2h-2zm6 0h2v2h-2zm2 0h2v2h-2zm2 0h2v2h-2zm4 0h2v2h-2zm4 0h2v2h-2zm2 0h2v2h-2zm2 0h2v2h-2zm2 0h2v2h-2zm2 0h2v2h-2zm2 0h2v2h-2zm6 0h2v2h-2zm4 0h2v2h-2zm4 0h2v2h-2zm8 0h2v2h-2zm4 0h2v2h-2zm4 0h2v2h-2zm8 0h2v2h-2zm4 0h2v2h-2zm4 0h2v2h-2zm4 0h2v2h-2zm2 0h2v2h-2zm2 0h2v2h-2zm6 0h2v2h-2zm2 0h2v2h-2zm-156 2h2v2h-2zm4 0h2v2h-2zm2 0h2v2h-2zm4 0h2v2h-2zm4 0h2v2h-2zm2 0h2v2h-2zm2 0h2v2h-2zm2 0h2v2h-2zm4 0h2v2h-2zm2 0h2v2h-2zm8 0h2v2h-2zm4 0h2v2h-2zm4 0h2v2h-2zm4 0h2v2h-2zm4 0h2v2h-2zm2 0h2v2h-2zm6 0h2v2h-2zm4 0h2v2h-2zm4 0h2v2h-2zm2 0h2v2h-2zm2 0h2v2h-2zm4 0h2v2h-2zm4 0h2v2h-2zm6 0h2v2h-2zm2 0h2v2h-2zm4 0h2v2h-2zm4 0h2v2h-2zm8 0h2v2h-2zm4 0h2v2h-2zm4 0h2v2h-2zm2 0h2v2h-2zm2 0h2v2h-2zm4 0h2v2h-2zm4 0h2v2h-2zm4 0h2v2h-2zm4 0h2v2h-2zm4 0h2v2h-2zm4 0h2v2h-2zm4 0h2v2h-2zm4 0h2v2h-2zm4 0h2v2h-2zm4 0h2v2h-2zm2 0h2v2h-2zm-160 2h2v2h-2zm2 0h2v2h-2zm2 0h2v2h-2zm4 0h2v2h-2zm2 0h2v2h-2zm2 0h2v2h-2zm4 0h2v2h-2zm6 0h2v2h-2zm4 0h2v2h-2zm8 0h2v2h-2zm2 0h2v2h-2zm4 0h2v2h-2zm6 0h2v2h-2zm2 0h2v2h-2zm8 0h2v2h-2zm2 0h2v2h-2zm6 0h2v2h-2zm2 0h2v2h-2zm2 0h2v2h-2zm2 0h2v2h-2zm10 0h2v2h-2zm6 0h2v2h-2zm4 0h2v2h-2zm2 0h2v2h-2zm4 0h2v2h-2zm2 0h2v2h-2zm2 0h2v2h-2zm6 0h2v2h-2zm2 0h2v2h-2zm4 0h2v2h-2zm2 0h2v2h-2zm2 0h2v2h-2zm6 0h2v2h-2zm2 0h2v2h-2zm4 0h2v2h-2zm2 0h2v2h-2zm2 0h2v2h-2zm6 0h2v2h-2zm2 0h2v2h-2zm8 0h2v2h-2zm4 0h2v2h-2zm4 0h2v2h-2zm4 0h2v2h-2zm-156 2h2v2h-2zm2 0h2v2h-2zm4 0h2v2h-2zm6 0h2v2h-2zm4 0h2v2h-2zm4 0h2v2h-2zm6 0h2v2h-2zm2 0h2v2h-2zm2 0h2v2h-2zm2 0h2v2h-2zm2 0h2v2h-2zm4 0h2v2h-2zm6 0h2v2h-2zm2 0h2v2h-2zm4 0h2v2h-2zm8 0h2v2h-2zm2 0h2v2h-2zm2 0h2v2h-2zm4 0h2v2h-2zm2 0h2v2h-2zm2 0h2v2h-2zm4 0h2v2h-2zm2 0h2v2h-2zm6 0h2v2h-2zm2 0h2v2h-2zm2 0h2v2h-2zm4 0h2v2h-2zm10 0h2v2h-2zm2 0h2v2h-2zm8 0h2v2h-2zm4 0h2v2h-2zm2 0h2v2h-2zm10 0h2v2h-2zm6 0h2v2h-2zm2 0h2v2h-2zm4 0h2v2h-2zm4 0h2v2h-2zm4 0h2v2h-2zm2 0h2v2h-2zm2 0h2v2h-2zm4 0h2v2h-2zm-158 2h2v2h-2zm2 0h2v2h-2zm2 0h2v2h-2zm2 0h2v2h-2zm2 0h2v2h-2zm4 0h2v2h-2zm2 0h2v2h-2zm4 0h2v2h-2zm12 0h2v2h-2zm8 0h2v2h-2zm2 0h2v2h-2zm4 0h2v2h-2zm4 0h2v2h-2zm4 0h2v2h-2zm4 0h2v2h-2zm2 0h2v2h-2zm6 0h2v2h-2zm4 0h2v2h-2zm4 0h2v2h-2zm4 0h2v2h-2zm4 0h2v2h-2zm2 0h2v2h-2zm6 0h2v2h-2zm4 0h2v2h-2zm16 0h2v2h-2zm4 0h2v2h-2zm4 0h2v2h-2zm4 0h2v2h-2zm8 0h2v2h-2zm4 0h2v2h-2zm4 0h2v2h-2zm4 0h2v2h-2zm4 0h2v2h-2zm8 0h2v2h-2zm8 0h2v2h-2zm-156 2h2v2h-2zm12 0h2v2h-2zm4 0h2v2h-2zm8 0h2v2h-2zm4 0h2v2h-2zm6 0h2v2h-2zm10 0h2v2h-2zm2 0h2v2h-2zm4 0h2v2h-2zm2 0h2v2h-2zm2 0h2v2h-2zm6 0h2v2h-2zm2 0h2v2h-2zm12 0h2v2h-2zm4 0h2v2h-2zm4 0h2v2h-2zm4 0h2v2h-2zm8 0h2v2h-2zm4 0h2v2h-2zm2 0h2v2h-2zm2 0h2v2h-2zm4 0h2v2h-2zm4 0h2v2h-2zm4 0h2v2h-2zm4 0h2v2h-2zm4 0h2v2h-2zm4 0h2v2h-2zm8 0h2v2h-2zm4 0h2v2h-2zm4 0h2v2h-2zm8 0h2v2h-2zm4 0h2v2h-2zm2 0h2v2h-2zm-160 2h2v2h-2zm2 0h2v2h-2zm2 0h2v2h-2zm4 0h2v2h-2zm4 0h2v2h-2zm4 0h2v2h-2zm4 0h2v2h-2zm4 0h2v2h-2zm10 0h2v2h-2zm2 0h2v2h-2zm4 0h2v2h-2zm4 0h2v2h-2zm12 0h2v2h-2zm6 0h2v2h-2zm8 0h2v2h-2zm4 0h2v2h-2zm6 0h2v2h-2zm8 0h2v2h-2zm6 0h2v2h-2zm4 0h2v2h-2zm2 0h2v2h-2zm4 0h2v2h-2zm2 0h2v2h-2zm2 0h2v2h-2zm4 0h2v2h-2zm2 0h2v2h-2zm2 0h2v2h-2zm6 0h2v2h-2zm2 0h2v2h-2zm4 0h2v2h-2zm2 0h2v2h-2zm2 0h2v2h-2zm2 0h2v2h-2zm2 0h2v2h-2zm2 0h2v2h-2zm2 0h2v2h-2zm8 0h2v2h-2zm2 0h2v2h-2zm6 0h2v2h-2zm4 0h2v2h-2zm-160 2h2v2h-2zm4 0h2v2h-2zm2 0h2v2h-2zm2 0h2v2h-2zm6 0h2v2h-2zm8 0h2v2h-2zm2 0h2v2h-2zm2 0h2v2h-2zm2 0h2v2h-2zm2 0h2v2h-2zm2 0h2v2h-2zm4 0h2v2h-2zm2 0h2v2h-2zm4 0h2v2h-2zm6 0h2v2h-2zm2 0h2v2h-2zm4 0h2v2h-2zm6 0h2v2h-2zm2 0h2v2h-2zm2 0h2v2h-2zm2 0h2v2h-2zm4 0h2v2h-2zm2 0h2v2h-2zm4 0h2v2h-2zm8 0h2v2h-2zm2 0h2v2h-2zm2 0h2v2h-2zm2 0h2v2h-2zm2 0h2v2h-2zm6 0h2v2h-2zm4 0h2v2h-2zm18 0h2v2h-2zm2 0h2v2h-2zm8 0h2v2h-2zm8 0h2v2h-2zm4 0h2v2h-2zm8 0h2v2h-2zm2 0h2v2h-2zm2 0h2v2h-2zm4 0h2v2h-2zm-158 2h2v2h-2zm4 0h2v2h-2zm2 0h2v2h-2zm6 0h2v2h-2zm12 0h2v2h-2zm6 0h2v2h-2zm2 0h2v2h-2zm2 0h2v2h-2zm2 0h2v2h-2zm2 0h2v2h-2zm2 0h2v2h-2zm4 0h2v2h-2zm8 0h2v2h-2zm4 0h2v2h-2zm8 0h2v2h-2zm4 0h2v2h-2zm4 0h2v2h-2zm4 0h2v2h-2zm4 0h2v2h-2zm8 0h2v2h-2zm2 0h2v2h-2zm2 0h2v2h-2zm2 0h2v2h-2zm2 0h2v2h-2zm4 0h2v2h-2zm6 0h2v2h-2zm6 0h2v2h-2zm8 0h2v2h-2zm4 0h2v2h-2zm4 0h2v2h-2zm4 0h2v2h-2zm4 0h2v2h-2zm4 0h2v2h-2zm2 0h2v2h-2zm2 0h2v2h-2zm2 0h2v2h-2zm6 0h2v2h-2zm8 0h2v2h-2zm-158 2h2v2h-2zm2 0h2v2h-2zm2 0h2v2h-2zm16 0h2v2h-2zm4 0h2v2h-2zm4 0h2v2h-2zm2 0h2v2h-2zm2 0h2v2h-2zm2 0h2v2h-2zm2 0h2v2h-2zm2 0h2v2h-2zm6 0h2v2h-2zm4 0h2v2h-2zm4 0h2v2h-2zm2 0h2v2h-2zm4 0h2v2h-2zm2 0h2v2h-2zm4 0h2v2h-2zm4 0h2v2h-2zm4 0h2v2h-2zm10 0h2v2h-2zm2 0h2v2h-2zm4 0h2v2h-2zm4 0h2v2h-2zm4 0h2v2h-2zm4 0h2v2h-2zm2 0h2v2h-2zm6 0h2v2h-2zm2 0h2v2h-2zm2 0h2v2h-2zm4 0h2v2h-2zm4 0h2v2h-2zm4 0h2v2h-2zm4 0h2v2h-2zm4 0h2v2h-2zm4 0h2v2h-2zm6 0h2v2h-2zm2 0h2v2h-2zm4 0h2v2h-2zm6 0h2v2h-2zm2 0h2v2h-2zm2 0h2v2h-2zm-158 2h2v2h-2zm6 0h2v2h-2zm4 0h2v2h-2zm2 0h2v2h-2zm4 0h2v2h-2zm2 0h2v2h-2zm16 0h2v2h-2zm2 0h2v2h-2zm4 0h2v2h-2zm2 0h2v2h-2zm4 0h2v2h-2zm8 0h2v2h-2zm4 0h2v2h-2zm4 0h2v2h-2zm6 0h2v2h-2zm10 0h2v2h-2zm4 0h2v2h-2zm2 0h2v2h-2zm10 0h2v2h-2zm2 0h2v2h-2zm2 0h2v2h-2zm4 0h2v2h-2zm6 0h2v2h-2zm2 0h2v2h-2zm10 0h2v2h-2zm2 0h2v2h-2zm4 0h2v2h-2zm2 0h2v2h-2zm2 0h2v2h-2zm4 0h2v2h-2zm2 0h2v2h-2zm10 0h2v2h-2zm4 0h2v2h-2zm4 0h2v2h-2zm4 0h2v2h-2zm-160 2h2v2h-2zm6 0h2v2h-2zm18 0h2v2h-2zm8 0h2v2h-2zm2 0h2v2h-2zm8 0h2v2h-2zm2 0h2v2h-2zm2 0h2v2h-2zm4 0h2v2h-2zm4 0h2v2h-2zm4 0h2v2h-2zm4 0h2v2h-2zm2 0h2v2h-2zm2 0h2v2h-2zm4 0h2v2h-2zm2 0h2v2h-2zm2 0h2v2h-2zm4 0h2v2h-2zm2 0h2v2h-2zm4 0h2v2h-2zm2 0h2v2h-2zm2 0h2v2h-2zm2 0h2v2h-2zm4 0h2v2h-2zm4 0h2v2h-2zm2 0h2v2h-2zm2 0h2v2h-2zm12 0h2v2h-2zm2 0h2v2h-2zm4 0h2v2h-2zm2 0h2v2h-2zm16 0h2v2h-2zm2 0h2v2h-2zm2 0h2v2h-2zm4 0h2v2h-2zm4 0h2v2h-2zm2 0h2v2h-2zm2 0h2v2h-2zm4 0h2v2h-2zm-158 2h2v2h-2zm6 0h2v2h-2zm2 0h2v2h-2zm2 0h2v2h-2zm2 0h2v2h-2zm2 0h2v2h-2zm2 0h2v2h-2zm4 0h2v2h-2zm2 0h2v2h-2zm2 0h2v2h-2zm2 0h2v2h-2zm2 0h2v2h-2zm2 0h2v2h-2zm2 0h2v2h-2zm6 0h2v2h-2zm2 0h2v2h-2zm6 0h2v2h-2zm2 0h2v2h-2zm2 0h2v2h-2zm2 0h2v2h-2zm2 0h2v2h-2zm2 0h2v2h-2zm4 0h2v2h-2zm4 0h2v2h-2zm4 0h2v2h-2zm4 0h2v2h-2zm4 0h2v2h-2zm4 0h2v2h-2zm2 0h2v2h-2zm2 0h2v2h-2zm4 0h2v2h-2zm4 0h2v2h-2zm2 0h2v2h-2zm2 0h2v2h-2zm2 0h2v2h-2zm2 0h2v2h-2zm2 0h2v2h-2zm2 0h2v2h-2zm8 0h2v2h-2zm4 0h2v2h-2zm4 0h2v2h-2zm4 0h2v2h-2zm4 0h2v2h-2zm12 0h2v2h-2zm4 0h2v2h-2zm2 0h2v2h-2zm2 0h2v2h-2zm2 0h2v2h-2zm2 0h2v2h-2zm8 0h2v2h-2zm-160 2h2v2h-2zm2 0h2v2h-2zm6 0h2v2h-2zm8 0h2v2h-2zm10 0h2v2h-2zm2 0h2v2h-2zm2 0h2v2h-2zm2 0h2v2h-2zm2 0h2v2h-2zm4 0h2v2h-2zm2 0h2v2h-2zm8 0h2v2h-2zm8 0h2v2h-2zm2 0h2v2h-2zm4 0h2v2h-2zm2 0h2v2h-2zm2 0h2v2h-2zm4 0h2v2h-2zm4 0h2v2h-2zm6 0h2v2h-2zm2 0h2v2h-2zm4 0h2v2h-2zm4 0h2v2h-2zm4 0h2v2h-2zm2 0h2v2h-2zm8 0h2v2h-2zm2 0h2v2h-2zm6 0h2v2h-2zm2 0h2v2h-2zm4 0h2v2h-2zm4 0h2v2h-2zm4 0h2v2h-2zm2 0h2v2h-2zm2 0h2v2h-2zm4 0h2v2h-2zm2 0h2v2h-2zm2 0h2v2h-2zm4 0h2v2h-2zm2 0h2v2h-2zm8 0h2v2h-2zm2 0h2v2h-2zm4 0h2v2h-2zm2 0h2v2h-2zm-160 2h2v2h-2zm2 0h2v2h-2zm6 0h2v2h-2zm4 0h2v2h-2zm4 0h2v2h-2zm18 0h2v2h-2zm10 0h2v2h-2zm2 0h2v2h-2zm2 0h2v2h-2zm4 0h2v2h-2zm4 0h2v2h-2zm6 0h2v2h-2zm8 0h2v2h-2zm8 0h2v2h-2zm2 0h2v2h-2zm8 0h2v2h-2zm8 0h2v2h-2zm4 0h2v2h-2zm4 0h2v2h-2zm2 0h2v2h-2zm2 0h2v2h-2zm2 0h2v2h-2zm2 0h2v2h-2zm2 0h2v2h-2zm2 0h2v2h-2zm4 0h2v2h-2zm2 0h2v2h-2zm2 0h2v2h-2zm2 0h2v2h-2zm2 0h2v2h-2zm2 0h2v2h-2zm2 0h2v2h-2zm2 0h2v2h-2zm2 0h2v2h-2zm2 0h2v2h-2zm2 0h2v2h-2zm4 0h2v2h-2zm4 0h2v2h-2zm4 0h2v2h-2zm4 0h2v2h-2zm4 0h2v2h-2zm-152 2h2v2h-2zm8 0h2v2h-2zm2 0h2v2h-2zm2 0h2v2h-2zm8 0h2v2h-2zm6 0h2v2h-2zm8 0h2v2h-2zm4 0h2v2h-2zm2 0h2v2h-2zm8 0h2v2h-2zm2 0h2v2h-2zm4 0h2v2h-2zm4 0h2v2h-2zm4 0h2v2h-2zm2 0h2v2h-2zm2 0h2v2h-2zm8 0h2v2h-2zm4 0h2v2h-2zm4 0h2v2h-2zm6 0h2v2h-2zm8 0h2v2h-2zm2 0h2v2h-2zm8 0h2v2h-2zm16 0h2v2h-2zm8 0h2v2h-2zm4 0h2v2h-2zm2 0h2v2h-2zm8 0h2v2h-2zm2 0h2v2h-2zm4 0h2v2h-2zm-158 2h2v2h-2zm4 0h2v2h-2zm2 0h2v2h-2zm2 0h2v2h-2zm2 0h2v2h-2zm2 0h2v2h-2zm2 0h2v2h-2zm2 0h2v2h-2zm2 0h2v2h-2zm2 0h2v2h-2zm4 0h2v2h-2zm2 0h2v2h-2zm2 0h2v2h-2zm4 0h2v2h-2zm12 0h2v2h-2zm4 0h2v2h-2zm2 0h2v2h-2zm2 0h2v2h-2zm2 0h2v2h-2zm2 0h2v2h-2zm4 0h2v2h-2zm2 0h2v2h-2zm6 0h2v2h-2zm4 0h2v2h-2zm2 0h2v2h-2zm2 0h2v2h-2zm2 0h2v2h-2zm2 0h2v2h-2zm4 0h2v2h-2zm2 0h2v2h-2zm6 0h2v2h-2zm2 0h2v2h-2zm2 0h2v2h-2zm2 0h2v2h-2zm2 0h2v2h-2zm2 0h2v2h-2zm2 0h2v2h-2zm4 0h2v2h-2zm8 0h2v2h-2zm4 0h2v2h-2zm8 0h2v2h-2zm4 0h2v2h-2zm8 0h2v2h-2zm2 0h2v2h-2zm2 0h2v2h-2zm2 0h2v2h-2zm2 0h2v2h-2zm2 0h2v2h-2zm2 0h2v2h-2zm8 0h2v2h-2zm-160 2h2v2h-2zm6 0h2v2h-2zm8 0h2v2h-2zm2 0h2v2h-2zm2 0h2v2h-2zm2 0h2v2h-2zm2 0h2v2h-2zm2 0h2v2h-2zm2 0h2v2h-2zm2 0h2v2h-2zm4 0h2v2h-2zm4 0h2v2h-2zm10 0h2v2h-2zm4 0h2v2h-2zm4 0h2v2h-2zm4 0h2v2h-2zm4 0h2v2h-2zm2 0h2v2h-2zm2 0h2v2h-2zm6 0h2v2h-2zm2 0h2v2h-2zm4 0h2v2h-2zm4 0h2v2h-2zm4 0h2v2h-2zm2 0h2v2h-2zm8 0h2v2h-2zm2 0h2v2h-2zm4 0h2v2h-2zm4 0h2v2h-2zm6 0h2v2h-2zm2 0h2v2h-2zm4 0h2v2h-2zm4 0h2v2h-2zm2 0h2v2h-2zm4 0h2v2h-2zm2 0h2v2h-2zm4 0h2v2h-2zm2 0h2v2h-2zm2 0h2v2h-2zm4 0h2v2h-2zm2 0h2v2h-2zm2 0h2v2h-2zm2 0h2v2h-2zm2 0h2v2h-2zm4 0h2v2h-2zm-154 2h2v2h-2zm4 0h2v2h-2zm6 0h2v2h-2zm2 0h2v2h-2zm2 0h2v2h-2zm2 0h2v2h-2zm2 0h2v2h-2zm4 0h2v2h-2zm2 0h2v2h-2zm2 0h2v2h-2zm2 0h2v2h-2zm2 0h2v2h-2zm2 0h2v2h-2zm2 0h2v2h-2zm4 0h2v2h-2zm4 0h2v2h-2zm2 0h2v2h-2zm4 0h2v2h-2zm4 0h2v2h-2zm10 0h2v2h-2zm8 0h2v2h-2zm4 0h2v2h-2zm2 0h2v2h-2zm4 0h2v2h-2zm6 0h2v2h-2zm4 0h2v2h-2zm10 0h2v2h-2zm2 0h2v2h-2zm2 0h2v2h-2zm2 0h2v2h-2zm2 0h2v2h-2zm2 0h2v2h-2zm2 0h2v2h-2zm2 0h2v2h-2zm6 0h2v2h-2zm2 0h2v2h-2zm2 0h2v2h-2zm2 0h2v2h-2zm2 0h2v2h-2zm2 0h2v2h-2zm2 0h2v2h-2zm2 0h2v2h-2zm4 0h2v2h-2zm6 0h2v2h-2zm2 0h2v2h-2zm6 0h2v2h-2zm4 0h2v2h-2zm4 0h2v2h-2zm-158 2h2v2h-2zm4 0h2v2h-2zm4 0h2v2h-2zm4 0h2v2h-2zm6 0h2v2h-2zm2 0h2v2h-2zm4 0h2v2h-2zm4 0h2v2h-2zm6 0h2v2h-2zm6 0h2v2h-2zm2 0h2v2h-2zm6 0h2v2h-2zm2 0h2v2h-2zm2 0h2v2h-2zm6 0h2v2h-2zm2 0h2v2h-2zm2 0h2v2h-2zm2 0h2v2h-2zm4 0h2v2h-2zm2 0h2v2h-2zm4 0h2v2h-2zm4 0h2v2h-2zm4 0h2v2h-2zm2 0h2v2h-2zm2 0h2v2h-2zm2 0h2v2h-2zm4 0h2v2h-2zm8 0h2v2h-2zm4 0h2v2h-2zm8 0h2v2h-2zm2 0h2v2h-2zm6 0h2v2h-2zm12 0h2v2h-2zm2 0h2v2h-2zm2 0h2v2h-2zm2 0h2v2h-2zm2 0h2v2h-2zm8 0h2v2h-2zm4 0h2v2h-2zm4 0h2v2h-2zm2 0h2v2h-2zm-156 2h2v2h-2zm8 0h2v2h-2zm2 0h2v2h-2zm2 0h2v2h-2zm2 0h2v2h-2zm2 0h2v2h-2zm4 0h2v2h-2zm6 0h2v2h-2zm6 0h2v2h-2zm2 0h2v2h-2zm2 0h2v2h-2zm8 0h2v2h-2zm2 0h2v2h-2zm2 0h2v2h-2zm4 0h2v2h-2zm4 0h2v2h-2zm4 0h2v2h-2zm4 0h2v2h-2zm4 0h2v2h-2zm6 0h2v2h-2zm2 0h2v2h-2zm4 0h2v2h-2zm4 0h2v2h-2zm4 0h2v2h-2zm4 0h2v2h-2zm4 0h2v2h-2zm4 0h2v2h-2zm4 0h2v2h-2zm4 0h2v2h-2zm2 0h2v2h-2zm6 0h2v2h-2zm4 0h2v2h-2zm4 0h2v2h-2zm8 0h2v2h-2zm4 0h2v2h-2zm4 0h2v2h-2zm4 0h2v2h-2zm2 0h2v2h-2zm2 0h2v2h-2zm8 0h2v2h-2zm-158 2h2v2h-2zm6 0h2v2h-2zm2 0h2v2h-2zm10 0h2v2h-2zm6 0h2v2h-2zm2 0h2v2h-2zm4 0h2v2h-2zm2 0h2v2h-2zm4 0h2v2h-2zm2 0h2v2h-2zm6 0h2v2h-2zm2 0h2v2h-2zm4 0h2v2h-2zm2 0h2v2h-2zm4 0h2v2h-2zm4 0h2v2h-2zm4 0h2v2h-2zm4 0h2v2h-2zm4 0h2v2h-2zm4 0h2v2h-2zm4 0h2v2h-2zm12 0h2v2h-2zm4 0h2v2h-2zm4 0h2v2h-2zm4 0h2v2h-2zm4 0h2v2h-2zm4 0h2v2h-2zm2 0h2v2h-2zm2 0h2v2h-2zm4 0h2v2h-2zm4 0h2v2h-2zm2 0h2v2h-2zm2 0h2v2h-2zm4 0h2v2h-2zm4 0h2v2h-2zm8 0h2v2h-2zm2 0h2v2h-2zm6 0h2v2h-2zm4 0h2v2h-2zm2 0h2v2h-2zm-160 2h2v2h-2zm2 0h2v2h-2zm2 0h2v2h-2zm4 0h2v2h-2zm2 0h2v2h-2zm2 0h2v2h-2zm6 0h2v2h-2zm2 0h2v2h-2zm14 0h2v2h-2zm2 0h2v2h-2zm6 0h2v2h-2zm2 0h2v2h-2zm2 0h2v2h-2zm2 0h2v2h-2zm4 0h2v2h-2zm12 0h2v2h-2zm8 0h2v2h-2zm8 0h2v2h-2zm6 0h2v2h-2zm8 0h2v2h-2zm6 0h2v2h-2zm2 0h2v2h-2zm2 0h2v2h-2zm2 0h2v2h-2zm6 0h2v2h-2zm2 0h2v2h-2zm2 0h2v2h-2zm4 0h2v2h-2zm2 0h2v2h-2zm2 0h2v2h-2zm2 0h2v2h-2zm2 0h2v2h-2zm2 0h2v2h-2zm2 0h2v2h-2zm4 0h2v2h-2zm2 0h2v2h-2zm2 0h2v2h-2zm4 0h2v2h-2zm2 0h2v2h-2zm6 0h2v2h-2zm4 0h2v2h-2zm4 0h2v2h-2zm-158 2h2v2h-2zm2 0h2v2h-2zm6 0h2v2h-2zm4 0h2v2h-2zm2 0h2v2h-2zm2 0h2v2h-2zm2 0h2v2h-2zm2 0h2v2h-2zm2 0h2v2h-2zm4 0h2v2h-2zm2 0h2v2h-2zm2 0h2v2h-2zm2 0h2v2h-2zm2 0h2v2h-2zm8 0h2v2h-2zm6 0h2v2h-2zm2 0h2v2h-2zm2 0h2v2h-2zm6 0h2v2h-2zm2 0h2v2h-2zm2 0h2v2h-2zm4 0h2v2h-2zm6 0h2v2h-2zm4 0h2v2h-2zm2 0h2v2h-2zm2 0h2v2h-2zm4 0h2v2h-2zm2 0h2v2h-2zm4 0h2v2h-2zm10 0h2v2h-2zm4 0h2v2h-2zm2 0h2v2h-2zm6 0h2v2h-2zm16 0h2v2h-2zm8 0h2v2h-2zm4 0h2v2h-2zm4 0h2v2h-2zm4 0h2v2h-2zm4 0h2v2h-2zm-154 2h2v2h-2zm10 0h2v2h-2zm2 0h2v2h-2zm4 0h2v2h-2zm6 0h2v2h-2zm4 0h2v2h-2zm2 0h2v2h-2zm4 0h2v2h-2zm2 0h2v2h-2zm4 0h2v2h-2zm2 0h2v2h-2zm2 0h2v2h-2zm2 0h2v2h-2zm4 0h2v2h-2zm2 0h2v2h-2zm6 0h2v2h-2zm4 0h2v2h-2zm4 0h2v2h-2zm8 0h2v2h-2zm4 0h2v2h-2zm4 0h2v2h-2zm4 0h2v2h-2zm4 0h2v2h-2zm8 0h2v2h-2zm2 0h2v2h-2zm2 0h2v2h-2zm2 0h2v2h-2zm6 0h2v2h-2zm4 0h2v2h-2zm2 0h2v2h-2zm6 0h2v2h-2zm2 0h2v2h-2zm10 0h2v2h-2zm4 0h2v2h-2zm4 0h2v2h-2zm4 0h2v2h-2zm4 0h2v2h-2zm10 0h2v2h-2zm-156 2h2v2h-2zm6 0h2v2h-2zm2 0h2v2h-2zm4 0h2v2h-2zm4 0h2v2h-2zm2 0h2v2h-2zm8 0h2v2h-2zm2 0h2v2h-2zm8 0h2v2h-2zm4 0h2v2h-2zm2 0h2v2h-2zm2 0h2v2h-2zm4 0h2v2h-2zm2 0h2v2h-2zm4 0h2v2h-2zm2 0h2v2h-2zm4 0h2v2h-2zm6 0h2v2h-2zm6 0h2v2h-2zm4 0h2v2h-2zm4 0h2v2h-2zm4 0h2v2h-2zm6 0h2v2h-2zm2 0h2v2h-2zm6 0h2v2h-2zm6 0h2v2h-2zm4 0h2v2h-2zm4 0h2v2h-2zm2 0h2v2h-2zm2 0h2v2h-2zm4 0h2v2h-2zm2 0h2v2h-2zm4 0h2v2h-2zm2 0h2v2h-2zm4 0h2v2h-2zm4 0h2v2h-2zm8 0h2v2h-2zm2 0h2v2h-2zm2 0h2v2h-2zm6 0h2v2h-2zm2 0h2v2h-2zm2 0h2v2h-2zm-156 2h2v2h-2zm2 0h2v2h-2zm2 0h2v2h-2zm2 0h2v2h-2zm2 0h2v2h-2zm4 0h2v2h-2zm2 0h2v2h-2zm4 0h2v2h-2zm8 0h2v2h-2zm6 0h2v2h-2zm4 0h2v2h-2zm4 0h2v2h-2zm4 0h2v2h-2zm2 0h2v2h-2zm6 0h2v2h-2zm6 0h2v2h-2zm6 0h2v2h-2zm4 0h2v2h-2zm8 0h2v2h-2zm8 0h2v2h-2zm4 0h2v2h-2zm6 0h2v2h-2zm2 0h2v2h-2zm6 0h2v2h-2zm2 0h2v2h-2zm4 0h2v2h-2zm2 0h2v2h-2zm2 0h2v2h-2zm4 0h2v2h-2zm2 0h2v2h-2zm2 0h2v2h-2zm2 0h2v2h-2zm2 0h2v2h-2zm2 0h2v2h-2zm2 0h2v2h-2zm4 0h2v2h-2zm2 0h2v2h-2zm6 0h2v2h-2zm8 0h2v2h-2zm8 0h2v2h-2zm-154 2h2v2h-2zm4 0h2v2h-2zm6 0h2v2h-2zm4 0h2v2h-2zm2 0h2v2h-2zm2 0h2v2h-2zm2 0h2v2h-2zm10 0h2v2h-2zm2 0h2v2h-2zm4 0h2v2h-2zm8 0h2v2h-2zm6 0h2v2h-2zm2 0h2v2h-2zm4 0h2v2h-2zm2 0h2v2h-2zm4 0h2v2h-2zm2 0h2v2h-2zm2 0h2v2h-2zm4 0h2v2h-2zm2 0h2v2h-2zm2 0h2v2h-2zm2 0h2v2h-2zm4 0h2v2h-2zm2 0h2v2h-2zm4 0h2v2h-2zm2 0h2v2h-2zm4 0h2v2h-2zm2 0h2v2h-2zm6 0h2v2h-2zm16 0h2v2h-2zm12 0h2v2h-2zm4 0h2v2h-2zm4 0h2v2h-2zm4 0h2v2h-2zm2 0h2v2h-2zm2 0h2v2h-2zm4 0h2v2h-2zm4 0h2v2h-2zm-152 2h2v2h-2zm4 0h2v2h-2zm2 0h2v2h-2zm2 0h2v2h-2zm4 0h2v2h-2zm2 0h2v2h-2zm2 0h2v2h-2zm2 0h2v2h-2zm2 0h2v2h-2zm6 0h2v2h-2zm6 0h2v2h-2zm2 0h2v2h-2zm4 0h2v2h-2zm4 0h2v2h-2zm4 0h2v2h-2zm8 0h2v2h-2zm4 0h2v2h-2zm4 0h2v2h-2zm4 0h2v2h-2zm4 0h2v2h-2zm4 0h2v2h-2zm4 0h2v2h-2zm4 0h2v2h-2zm4 0h2v2h-2zm4 0h2v2h-2zm4 0h2v2h-2zm2 0h2v2h-2zm6 0h2v2h-2zm4 0h2v2h-2zm8 0h2v2h-2zm4 0h2v2h-2zm4 0h2v2h-2zm2 0h2v2h-2zm6 0h2v2h-2zm4 0h2v2h-2zm4 0h2v2h-2zm2 0h2v2h-2zm2 0h2v2h-2zm12 0h2v2h-2zm-160 2h2v2h-2zm2 0h2v2h-2zm2 0h2v2h-2zm4 0h2v2h-2zm2 0h2v2h-2zm6 0h2v2h-2zm4 0h2v2h-2zm2 0h2v2h-2zm2 0h2v2h-2zm4 0h2v2h-2zm2 0h2v2h-2zm4 0h2v2h-2zm4 0h2v2h-2zm8 0h2v2h-2zm2 0h2v2h-2zm2 0h2v2h-2zm6 0h2v2h-2zm2 0h2v2h-2zm4 0h2v2h-2zm4 0h2v2h-2zm4 0h2v2h-2zm4 0h2v2h-2zm4 0h2v2h-2zm4 0h2v2h-2zm4 0h2v2h-2zm4 0h2v2h-2zm4 0h2v2h-2zm4 0h2v2h-2zm8 0h2v2h-2zm4 0h2v2h-2zm2 0h2v2h-2zm2 0h2v2h-2zm4 0h2v2h-2zm4 0h2v2h-2zm6 0h2v2h-2zm2 0h2v2h-2zm2 0h2v2h-2zm2 0h2v2h-2zm4 0h2v2h-2zm10 0h2v2h-2zm2 0h2v2h-2zm4 0h2v2h-2zm4 0h2v2h-2zm2 0h2v2h-2zm-160 2h2v2h-2zm2 0h2v2h-2zm2 0h2v2h-2zm4 0h2v2h-2zm2 0h2v2h-2zm2 0h2v2h-2zm2 0h2v2h-2zm6 0h2v2h-2zm2 0h2v2h-2zm2 0h2v2h-2zm2 0h2v2h-2zm2 0h2v2h-2zm6 0h2v2h-2zm2 0h2v2h-2zm4 0h2v2h-2zm4 0h2v2h-2zm2 0h2v2h-2zm6 0h2v2h-2zm12 0h2v2h-2zm8 0h2v2h-2zm6 0h2v2h-2zm8 0h2v2h-2zm8 0h2v2h-2zm2 0h2v2h-2zm4 0h2v2h-2zm2 0h2v2h-2zm2 0h2v2h-2zm2 0h2v2h-2zm2 0h2v2h-2zm2 0h2v2h-2zm4 0h2v2h-2zm2 0h2v2h-2zm4 0h2v2h-2zm2 0h2v2h-2zm2 0h2v2h-2zm2 0h2v2h-2zm2 0h2v2h-2zm2 0h2v2h-2zm2 0h2v2h-2zm4 0h2v2h-2zm2 0h2v2h-2zm2 0h2v2h-2zm4 0h2v2h-2zm4 0h2v2h-2zm4 0h2v2h-2zm4 0h2v2h-2zm4 0h2v2h-2zm-160 2h2v2h-2zm4 0h2v2h-2zm4 0h2v2h-2zm6 0h2v2h-2zm8 0h2v2h-2zm2 0h2v2h-2zm8 0h2v2h-2zm4 0h2v2h-2zm2 0h2v2h-2zm4 0h2v2h-2zm4 0h2v2h-2zm4 0h2v2h-2zm2 0h2v2h-2zm2 0h2v2h-2zm4 0h2v2h-2zm4 0h2v2h-2zm2 0h2v2h-2zm2 0h2v2h-2zm8 0h2v2h-2zm4 0h2v2h-2zm4 0h2v2h-2zm8 0h2v2h-2zm4 0h2v2h-2zm8 0h2v2h-2zm4 0h2v2h-2zm6 0h2v2h-2zm10 0h2v2h-2zm20 0h2v2h-2zm2 0h2v2h-2zm2 0h2v2h-2zm6 0h2v2h-2zm6 0h2v2h-2zm-158 2h2v2h-2zm2 0h2v2h-2zm2 0h2v2h-2zm8 0h2v2h-2zm4 0h2v2h-2zm12 0h2v2h-2zm6 0h2v2h-2zm2 0h2v2h-2zm2 0h2v2h-2zm2 0h2v2h-2zm4 0h2v2h-2zm8 0h2v2h-2zm4 0h2v2h-2zm2 0h2v2h-2zm2 0h2v2h-2zm4 0h2v2h-2zm4 0h2v2h-2zm2 0h2v2h-2zm2 0h2v2h-2zm4 0h2v2h-2zm2 0h2v2h-2zm4 0h2v2h-2zm2 0h2v2h-2zm2 0h2v2h-2zm2 0h2v2h-2zm4 0h2v2h-2zm2 0h2v2h-2zm2 0h2v2h-2zm4 0h2v2h-2zm4 0h2v2h-2zm4 0h2v2h-2zm4 0h2v2h-2zm8 0h2v2h-2zm4 0h2v2h-2zm12 0h2v2h-2zm6 0h2v2h-2zm2 0h2v2h-2zm4 0h2v2h-2zm6 0h2v2h-2zm2 0h2v2h-2zm4 0h2v2h-2zm-158 2h2v2h-2zm2 0h2v2h-2zm2 0h2v2h-2zm2 0h2v2h-2zm12 0h2v2h-2zm4 0h2v2h-2zm2 0h2v2h-2zm6 0h2v2h-2zm4 0h2v2h-2zm2 0h2v2h-2zm8 0h2v2h-2zm4 0h2v2h-2zm4 0h2v2h-2zm4 0h2v2h-2zm4 0h2v2h-2zm4 0h2v2h-2zm4 0h2v2h-2zm4 0h2v2h-2zm4 0h2v2h-2zm2 0h2v2h-2zm2 0h2v2h-2zm4 0h2v2h-2zm8 0h2v2h-2zm4 0h2v2h-2zm4 0h2v2h-2zm4 0h2v2h-2zm2 0h2v2h-2zm2 0h2v2h-2zm4 0h2v2h-2zm4 0h2v2h-2zm2 0h2v2h-2zm2 0h2v2h-2zm6 0h2v2h-2zm2 0h2v2h-2zm2 0h2v2h-2zm2 0h2v2h-2zm4 0h2v2h-2zm8 0h2v2h-2zm2 0h2v2h-2zm2 0h2v2h-2zm4 0h2v2h-2zm4 0h2v2h-2zm2 0h2v2h-2zm-158 2h2v2h-2zm2 0h2v2h-2zm2 0h2v2h-2zm6 0h2v2h-2zm2 0h2v2h-2zm4 0h2v2h-2zm2 0h2v2h-2zm2 0h2v2h-2zm14 0h2v2h-2zm4 0h2v2h-2zm2 0h2v2h-2zm2 0h2v2h-2zm4 0h2v2h-2zm4 0h2v2h-2zm6 0h2v2h-2zm2 0h2v2h-2zm4 0h2v2h-2zm8 0h2v2h-2zm6 0h2v2h-2zm4 0h2v2h-2zm2 0h2v2h-2zm2 0h2v2h-2zm4 0h2v2h-2zm10 0h2v2h-2zm2 0h2v2h-2zm2 0h2v2h-2zm4 0h2v2h-2zm4 0h2v2h-2zm2 0h2v2h-2zm2 0h2v2h-2zm2 0h2v2h-2zm2 0h2v2h-2zm2 0h2v2h-2zm8 0h2v2h-2zm2 0h2v2h-2zm4 0h2v2h-2zm2 0h2v2h-2zm2 0h2v2h-2zm6 0h2v2h-2zm6 0h2v2h-2zm4 0h2v2h-2zm4 0h2v2h-2zm-158 2h2v2h-2zm8 0h2v2h-2zm6 0h2v2h-2zm2 0h2v2h-2zm4 0h2v2h-2zm4 0h2v2h-2zm12 0h2v2h-2zm6 0h2v2h-2zm6 0h2v2h-2zm2 0h2v2h-2zm2 0h2v2h-2zm4 0h2v2h-2zm4 0h2v2h-2zm2 0h2v2h-2zm2 0h2v2h-2zm6 0h2v2h-2zm2 0h2v2h-2zm4 0h2v2h-2zm2 0h2v2h-2zm4 0h2v2h-2zm2 0h2v2h-2zm2 0h2v2h-2zm2 0h2v2h-2zm12 0h2v2h-2zm6 0h2v2h-2zm6 0h2v2h-2zm8 0h2v2h-2zm2 0h2v2h-2zm4 0h2v2h-2zm14 0h2v2h-2zm2 0h2v2h-2zm2 0h2v2h-2zm4 0h2v2h-2zm4 0h2v2h-2zm4 0h2v2h-2zm-156 2h2v2h-2zm2 0h2v2h-2zm2 0h2v2h-2zm6 0h2v2h-2zm2 0h2v2h-2zm2 0h2v2h-2zm4 0h2v2h-2zm2 0h2v2h-2zm2 0h2v2h-2zm6 0h2v2h-2zm2 0h2v2h-2zm2 0h2v2h-2zm2 0h2v2h-2zm2 0h2v2h-2zm2 0h2v2h-2zm4 0h2v2h-2zm4 0h2v2h-2zm2 0h2v2h-2zm2 0h2v2h-2zm2 0h2v2h-2zm2 0h2v2h-2zm4 0h2v2h-2zm4 0h2v2h-2zm4 0h2v2h-2zm2 0h2v2h-2zm2 0h2v2h-2zm4 0h2v2h-2zm4 0h2v2h-2zm2 0h2v2h-2zm2 0h2v2h-2zm4 0h2v2h-2zm4 0h2v2h-2zm4 0h2v2h-2zm2 0h2v2h-2zm2 0h2v2h-2zm2 0h2v2h-2zm2 0h2v2h-2zm12 0h2v2h-2zm4 0h2v2h-2zm4 0h2v2h-2zm4 0h2v2h-2zm8 0h2v2h-2zm2 0h2v2h-2zm4 0h2v2h-2zm2 0h2v2h-2zm2 0h2v2h-2zm2 0h2v2h-2zm2 0h2v2h-2zm2 0h2v2h-2zm6 0h2v2h-2zm-142 2h2v2h-2zm8 0h2v2h-2zm2 0h2v2h-2zm8 0h2v2h-2zm4 0h2v2h-2zm8 0h2v2h-2zm2 0h2v2h-2zm8 0h2v2h-2zm2 0h2v2h-2zm8 0h2v2h-2zm4 0h2v2h-2zm8 0h2v2h-2zm4 0h2v2h-2zm4 0h2v2h-2zm2 0h2v2h-2zm6 0h2v2h-2zm2 0h2v2h-2zm8 0h2v2h-2zm2 0h2v2h-2zm2 0h2v2h-2zm2 0h2v2h-2zm2 0h2v2h-2zm2 0h2v2h-2zm4 0h2v2h-2zm4 0h2v2h-2zm4 0h2v2h-2zm4 0h2v2h-2zm2 0h2v2h-2zm2 0h2v2h-2zm2 0h2v2h-2zm2 0h2v2h-2zm2 0h2v2h-2zm2 0h2v2h-2zm2 0h2v2h-2zm8 0h2v2h-2zm2 0h2v2h-2zm4 0h2v2h-2zm2 0h2v2h-2zm-160 2h2v2h-2zm2 0h2v2h-2zm2 0h2v2h-2zm2 0h2v2h-2zm2 0h2v2h-2zm2 0h2v2h-2zm2 0h2v2h-2zm4 0h2v2h-2zm8 0h2v2h-2zm2 0h2v2h-2zm4 0h2v2h-2zm2 0h2v2h-2zm2 0h2v2h-2zm2 0h2v2h-2zm8 0h2v2h-2zm4 0h2v2h-2zm4 0h2v2h-2zm4 0h2v2h-2zm6 0h2v2h-2zm10 0h2v2h-2zm8 0h2v2h-2zm6 0h2v2h-2zm4 0h2v2h-2zm6 0h2v2h-2zm4 0h2v2h-2zm4 0h2v2h-2zm2 0h2v2h-2zm2 0h2v2h-2zm2 0h2v2h-2zm2 0h2v2h-2zm2 0h2v2h-2zm6 0h2v2h-2zm2 0h2v2h-2zm2 0h2v2h-2zm6 0h2v2h-2zm2 0h2v2h-2zm2 0h2v2h-2zm2 0h2v2h-2zm2 0h2v2h-2zm2 0h2v2h-2zm2 0h2v2h-2zm2 0h2v2h-2zm4 0h2v2h-2zm4 0h2v2h-2zm4 0h2v2h-2zm4 0h2v2h-2zm-160 2h2v2h-2zm12 0h2v2h-2zm4 0h2v2h-2zm2 0h2v2h-2zm14 0h2v2h-2zm2 0h2v2h-2zm6 0h2v2h-2zm2 0h2v2h-2zm4 0h2v2h-2zm2 0h2v2h-2zm8 0h2v2h-2zm2 0h2v2h-2zm2 0h2v2h-2zm6 0h2v2h-2zm4 0h2v2h-2zm2 0h2v2h-2zm4 0h2v2h-2zm2 0h2v2h-2zm2 0h2v2h-2zm4 0h2v2h-2zm8 0h2v2h-2zm2 0h2v2h-2zm2 0h2v2h-2zm8 0h2v2h-2zm8 0h2v2h-2zm4 0h2v2h-2zm6 0h2v2h-2zm8 0h2v2h-2zm12 0h2v2h-2zm2 0h2v2h-2zm8 0h2v2h-2zm2 0h2v2h-2zm4 0h2v2h-2zm-158 2h2v2h-2zm4 0h2v2h-2zm2 0h2v2h-2zm2 0h2v2h-2zm4 0h2v2h-2zm4 0h2v2h-2zm14 0h2v2h-2zm4 0h2v2h-2zm6 0h2v2h-2zm4 0h2v2h-2zm4 0h2v2h-2zm2 0h2v2h-2zm2 0h2v2h-2zm2 0h2v2h-2zm2 0h2v2h-2zm4 0h2v2h-2zm4 0h2v2h-2zm4 0h2v2h-2zm4 0h2v2h-2zm8 0h2v2h-2zm2 0h2v2h-2zm6 0h2v2h-2zm4 0h2v2h-2zm4 0h2v2h-2zm2 0h2v2h-2zm2 0h2v2h-2zm2 0h2v2h-2zm2 0h2v2h-2zm2 0h2v2h-2zm6 0h2v2h-2zm8 0h2v2h-2zm2 0h2v2h-2zm6 0h2v2h-2zm4 0h2v2h-2zm4 0h2v2h-2zm8 0h2v2h-2zm2 0h2v2h-2zm2 0h2v2h-2zm2 0h2v2h-2zm2 0h2v2h-2zm6 0h2v2h-2zm-158 2h2v2h-2zm4 0h2v2h-2zm2 0h2v2h-2zm2 0h2v2h-2zm4 0h2v2h-2zm6 0h2v2h-2zm4 0h2v2h-2zm4 0h2v2h-2zm4 0h2v2h-2zm2 0h2v2h-2zm2 0h2v2h-2zm4 0h2v2h-2zm2 0h2v2h-2zm6 0h2v2h-2zm2 0h2v2h-2zm2 0h2v2h-2zm4 0h2v2h-2zm4 0h2v2h-2zm12 0h2v2h-2zm6 0h2v2h-2zm2 0h2v2h-2zm4 0h2v2h-2zm8 0h2v2h-2zm12 0h2v2h-2zm4 0h2v2h-2zm2 0h2v2h-2zm2 0h2v2h-2zm4 0h2v2h-2zm4 0h2v2h-2zm4 0h2v2h-2zm2 0h2v2h-2zm2 0h2v2h-2zm4 0h2v2h-2zm4 0h2v2h-2zm4 0h2v2h-2zm6 0h2v2h-2zm2 0h2v2h-2zm4 0h2v2h-2zm2 0h2v2h-2zm6 0h2v2h-2zm-158 2h2v2h-2zm4 0h2v2h-2zm2 0h2v2h-2zm2 0h2v2h-2zm4 0h2v2h-2zm4 0h2v2h-2zm6 0h2v2h-2zm4 0h2v2h-2zm10 0h2v2h-2zm4 0h2v2h-2zm2 0h2v2h-2zm2 0h2v2h-2zm4 0h2v2h-2zm4 0h2v2h-2zm4 0h2v2h-2zm8 0h2v2h-2zm2 0h2v2h-2zm6 0h2v2h-2zm4 0h2v2h-2zm4 0h2v2h-2zm8 0h2v2h-2zm8 0h2v2h-2zm8 0h2v2h-2zm2 0h2v2h-2zm2 0h2v2h-2zm4 0h2v2h-2zm2 0h2v2h-2zm2 0h2v2h-2zm4 0h2v2h-2zm2 0h2v2h-2zm2 0h2v2h-2zm6 0h2v2h-2zm2 0h2v2h-2zm4 0h2v2h-2zm2 0h2v2h-2zm2 0h2v2h-2zm2 0h2v2h-2zm2 0h2v2h-2zm8 0h2v2h-2zm2 0h2v2h-2zm6 0h2v2h-2zm-160 2h2v2h-2zm12 0h2v2h-2zm4 0h2v2h-2zm2 0h2v2h-2zm2 0h2v2h-2zm4 0h2v2h-2zm2 0h2v2h-2zm4 0h2v2h-2zm2 0h2v2h-2zm2 0h2v2h-2zm4 0h2v2h-2zm4 0h2v2h-2zm2 0h2v2h-2zm2 0h2v2h-2zm8 0h2v2h-2zm2 0h2v2h-2zm4 0h2v2h-2zm2 0h2v2h-2zm2 0h2v2h-2zm6 0h2v2h-2zm2 0h2v2h-2zm2 0h2v2h-2zm4 0h2v2h-2zm2 0h2v2h-2zm2 0h2v2h-2zm4 0h2v2h-2zm2 0h2v2h-2zm2 0h2v2h-2zm4 0h2v2h-2zm4 0h2v2h-2zm16 0h2v2h-2zm14 0h2v2h-2zm2 0h2v2h-2zm12 0h2v2h-2zm2 0h2v2h-2zm2 0h2v2h-2zm4 0h2v2h-2zm2 0h2v2h-2zm2 0h2v2h-2zm4 0h2v2h-2zm-158 2h2v2h-2zm2 0h2v2h-2zm2 0h2v2h-2zm2 0h2v2h-2zm2 0h2v2h-2zm2 0h2v2h-2zm2 0h2v2h-2zm4 0h2v2h-2zm4 0h2v2h-2zm2 0h2v2h-2zm2 0h2v2h-2zm10 0h2v2h-2zm2 0h2v2h-2zm2 0h2v2h-2zm2 0h2v2h-2zm8 0h2v2h-2zm2 0h2v2h-2zm6 0h2v2h-2zm2 0h2v2h-2zm2 0h2v2h-2zm4 0h2v2h-2zm2 0h2v2h-2zm6 0h2v2h-2zm4 0h2v2h-2zm4 0h2v2h-2zm4 0h2v2h-2zm4 0h2v2h-2zm4 0h2v2h-2zm4 0h2v2h-2zm2 0h2v2h-2zm2 0h2v2h-2zm4 0h2v2h-2zm8 0h2v2h-2zm4 0h2v2h-2zm4 0h2v2h-2zm2 0h2v2h-2zm6 0h2v2h-2zm4 0h2v2h-2zm6 0h2v2h-2zm6 0h2v2h-2zm4 0h2v2h-2zm2 0h2v2h-2zm8 0h2v2h-2zm2 0h2v2h-2z"/></svg>
